<?xml version="1.0" encoding="utf-8"?>
<!-- Generator: Adobe Illustrator 24.1.2, SVG Export Plug-In . SVG Version: 6.00 Build 0)  -->
<svg version="1.1" id="Layer_1" xmlns="http://www.w3.org/2000/svg" xmlns:xlink="http://www.w3.org/1999/xlink" x="0px" y="0px"
	 viewBox="0 0 449.04 136.19" style="enable-background:new 0 0 449.04 136.19;" xml:space="preserve">
<style type="text/css">
	.st0{fill:#FFFFFF;}
</style>
<path class="st0" d="M57.76,20H20v96.19h37.76c12.97,0,23.95-4.68,32.63-13.91c8.66-9.35,13.05-20.85,13.05-34.18
	c0-13.38-4.39-24.84-13.05-34.05C81.75,24.73,70.77,20,57.76,20z M57.76,102.14H34.72v-68.1h23.04c9.24,0,16.87,3.26,22.66,9.7
	c5.87,6.52,8.84,14.71,8.84,24.35s-2.97,17.83-8.84,24.35C74.63,98.88,67,102.14,57.76,102.14z"/>
<polygon class="st0" points="413.39,20 413.39,87.59 363.81,20 351.29,20 351.29,116.19 366.94,116.19 366.94,48.47 416.52,116.19 
	429.04,116.19 429.04,20 "/>
<path class="st0" d="M149.69,20l-35.87,96.19h15.68l7.65-21.07h40.71l7.65,21.07h15.68L165.34,20H149.69z M172.76,81.2h-30.5
	l15.19-41.92L172.76,81.2z"/>
<polygon class="st0" points="295.69,94.37 273.74,20 259.45,20 237.5,94.37 216.84,20 201.35,20 228.74,115.38 228.97,116.19 
	245.15,116.19 266.59,43.97 288.04,116.19 304.21,116.19 331.83,20 316.35,20 "/>
</svg>
