<?xml version="1.0" standalone="no"?>
<!DOCTYPE svg PUBLIC "-//W3C//DTD SVG 20010904//EN"
 "http://www.w3.org/TR/2001/REC-SVG-20010904/DTD/svg10.dtd">
<svg version="1.0" xmlns="http://www.w3.org/2000/svg"
 width="1500.000000pt" height="1500.000000pt" viewBox="0 0 1500.000000 1500.000000"
 preserveAspectRatio="xMidYMid meet">
<metadata>
Created by potrace 1.11, written by Peter Selinger 2001-2013
</metadata>
<g transform="translate(0.000000,1500.000000) scale(0.100000,-0.100000)"
fill="#000000" stroke="none">
<path d="M4782 11142 c-10 -7 -12 -748 -10 -3673 l3 -3664 1627 0 c1288 0
1630 3 1640 13 7 7 37 12 71 12 32 0 77 4 100 9 23 5 87 17 142 26 55 9 110
21 123 26 13 5 34 9 47 9 13 0 27 5 30 10 3 6 22 10 41 10 19 0 34 5 34 10 0
6 11 10 25 10 13 0 34 4 47 9 13 5 48 17 78 26 30 8 65 20 78 25 33 15 74 32
97 40 141 55 335 148 397 191 14 11 29 19 33 19 20 0 392 260 445 311 8 8 53
48 100 89 94 83 200 190 263 264 23 27 51 58 62 70 17 18 57 66 112 136 76 96
273 388 273 405 0 4 8 19 19 33 23 32 141 263 160 312 8 19 21 51 29 70 8 19
18 45 23 58 25 61 30 74 39 95 5 12 16 47 25 77 9 30 21 63 26 72 5 10 9 27 9
37 0 11 5 23 10 26 6 3 10 19 10 35 0 16 4 31 9 34 5 3 11 20 14 38 2 18 12
60 21 93 9 32 21 86 27 120 5 33 14 85 20 115 36 202 47 303 57 540 9 194 0
509 -18 665 -5 44 -12 109 -16 145 -3 36 -10 69 -15 74 -5 6 -9 31 -9 57 0 26
-4 51 -10 54 -5 3 -10 21 -10 38 0 18 -10 68 -21 112 -12 44 -23 95 -26 113
-3 18 -9 35 -14 38 -5 3 -9 18 -9 35 0 16 -4 29 -10 29 -5 0 -10 11 -10 25 0
14 -4 33 -9 43 -5 9 -17 42 -26 72 -9 30 -21 66 -27 80 -11 26 -25 60 -38 95
-5 11 -18 43 -30 70 -12 28 -29 66 -37 85 -14 32 -47 100 -105 210 -12 25 -26
47 -30 48 -5 2 -8 7 -8 12 0 12 -73 134 -82 138 -5 2 -8 8 -8 13 0 6 -5 15
-10 22 -6 7 -27 37 -47 67 -20 30 -40 57 -45 58 -4 2 -8 8 -8 13 0 10 -84 123
-140 189 -8 10 -33 39 -55 66 -22 27 -67 76 -100 110 -33 34 -74 77 -91 95
-43 47 -193 188 -235 221 -19 14 -44 35 -55 45 -74 63 -147 115 -285 206 -130
85 -129 84 -169 104 -19 9 -37 20 -40 23 -14 16 -317 155 -395 181 -22 7 -44
17 -50 21 -5 4 -18 8 -30 8 -12 0 -25 4 -30 8 -10 8 -28 14 -145 47 -30 9 -69
20 -86 25 -17 6 -42 10 -55 10 -14 0 -29 4 -34 9 -6 5 -28 11 -50 14 -22 4
-65 11 -95 16 -30 6 -88 15 -127 21 -40 5 -108 15 -150 21 -94 14 -3241 24
-3261 11z m3103 -1103 c170 -15 233 -25 370 -57 92 -23 225 -62 270 -81 81
-35 107 -46 161 -72 33 -16 66 -29 72 -29 7 0 12 -3 12 -7 0 -5 10 -13 23 -19
47 -23 153 -86 172 -103 11 -9 40 -30 65 -46 25 -17 52 -37 60 -45 8 -8 33
-30 55 -49 79 -67 171 -157 235 -231 36 -41 73 -83 83 -95 10 -11 39 -49 65
-85 25 -36 50 -66 54 -68 4 -2 8 -8 8 -13 0 -4 20 -40 45 -78 25 -38 45 -74
45 -79 0 -6 4 -12 8 -14 15 -6 156 -303 168 -354 4 -16 10 -33 14 -39 3 -5 12
-30 20 -55 7 -25 17 -49 22 -54 4 -6 8 -22 8 -37 0 -15 4 -30 9 -33 5 -3 11
-20 14 -38 3 -18 13 -67 22 -108 9 -41 18 -99 22 -128 3 -29 9 -55 14 -58 5
-3 9 -36 9 -74 0 -38 5 -72 10 -75 6 -4 10 -128 10 -340 0 -212 -4 -336 -10
-340 -5 -3 -10 -37 -10 -74 0 -37 -4 -71 -9 -77 -5 -5 -11 -31 -14 -59 -3 -27
-12 -84 -21 -125 -9 -41 -19 -90 -23 -108 -3 -18 -9 -35 -14 -38 -5 -3 -9 -18
-9 -34 0 -16 -4 -32 -10 -35 -5 -3 -10 -15 -10 -26 0 -10 -4 -27 -9 -37 -6 -9
-22 -51 -36 -92 -15 -41 -35 -92 -46 -113 -10 -22 -19 -45 -19 -52 0 -7 -3
-15 -7 -17 -5 -1 -26 -39 -48 -83 -21 -44 -54 -103 -72 -132 -18 -29 -33 -57
-33 -63 0 -5 -4 -10 -8 -10 -5 0 -15 -12 -23 -27 -8 -16 -16 -30 -19 -33 -3
-3 -23 -30 -45 -60 -130 -181 -309 -367 -465 -484 -30 -22 -57 -44 -60 -47 -6
-8 -132 -89 -185 -119 -82 -47 -240 -121 -310 -145 -27 -9 -59 -20 -70 -25
-11 -4 -40 -13 -65 -20 -25 -6 -53 -16 -62 -21 -10 -5 -29 -9 -43 -9 -14 0
-33 -4 -43 -9 -9 -5 -71 -16 -137 -25 -66 -9 -148 -21 -181 -26 -36 -6 -464
-10 -1033 -10 l-971 0 0 2575 0 2575 933 -1 c515 0 981 -4 1042 -10z"/>
</g>
</svg>
